<svg xmlns="http://www.w3.org/2000/svg" width="16" height="16" fill="none" viewBox="0 0 16 16"><g clip-path="url(#a)"><path fill="#fff" fill-rule="evenodd" d="M0 2a2 2 0 1 1 4 0 2 2 0 0 1-4 0Zm6 0a2 2 0 1 1 4 0 2 2 0 0 1-4 0Zm10 0a2 2 0 1 0-4 0 2 2 0 0 0 4 0ZM0 8a2 2 0 1 1 4 0 2 2 0 0 1-4 0Zm10 0a2 2 0 1 0-4 0 2 2 0 0 0 4 0Zm2 0a2 2 0 1 1 4 0 2 2 0 0 1-4 0Zm-8 6a2 2 0 1 0-4 0 2 2 0 0 0 4 0Zm2 0a2 2 0 1 1 4 0 2 2 0 0 1-4 0Zm10 0a2 2 0 1 0-4 0 2 2 0 0 0 4 0Z" clip-rule="evenodd"/></g><defs><clipPath id="a"><path fill="#fff" d="M0 0h16v16H0z"/></clipPath></defs></svg>